<svg width="1280" height="378" xmlns="http://www.w3.org/2000/svg" xmlns:xlink="http://www.w3.org/1999/xlink" overflow="hidden"><g><rect x="0" y="0" width="1280" height="378" fill="#FFFFFF"/><path d="M244.5 62.0001 1181.88 62.0002 1181.88 65.0002 244.5 65.0001ZM1180.38 59.0002 1189.38 63.5002 1180.38 68.0002Z"/><text font-family="Times New Roman,Times New Roman_MSFontService,sans-serif" font-weight="400" font-size="43" transform="translate(47.5996 78)">Fine</text><text font-family="Times New Roman,Times New Roman_MSFontService,sans-serif" font-weight="400" font-size="43" transform="translate(47.5993 330)">Coarse</text><path d="M244.5 314 1181.88 314 1181.88 317 244.5 317ZM1180.38 311 1189.38 315.5 1180.38 320Z"/><path d="M232.5 63.5001C232.5 56.8726 237.873 51.5001 244.5 51.5001 251.127 51.5001 256.5 56.8726 256.5 63.5001 256.5 70.1275 251.127 75.5001 244.5 75.5001 237.873 75.5001 232.5 70.1275 232.5 63.5001Z" stroke="#FFFFFF" stroke-width="3" stroke-miterlimit="8" fill="#1F77B4" fill-rule="evenodd"/><path d="M366.5 63.5001C366.5 56.8726 371.873 51.5001 378.5 51.5001 385.127 51.5001 390.5 56.8726 390.5 63.5001 390.5 70.1275 385.127 75.5001 378.5 75.5001 371.873 75.5001 366.5 70.1275 366.5 63.5001Z" stroke="#FFFFFF" stroke-width="3" stroke-miterlimit="8" fill="#1F77B4" fill-rule="evenodd"/><path d="M500.5 63.5001C500.5 56.8726 506.096 51.5001 513 51.5001 519.904 51.5001 525.5 56.8726 525.5 63.5001 525.5 70.1275 519.904 75.5001 513 75.5001 506.096 75.5001 500.5 70.1275 500.5 63.5001Z" stroke="#FFFFFF" stroke-width="3" stroke-miterlimit="8" fill="#1F77B4" fill-rule="evenodd"/><path d="M634.5 63.5001C634.5 56.8726 640.096 51.5001 647 51.5001 653.904 51.5001 659.5 56.8726 659.5 63.5001 659.5 70.1275 653.904 75.5001 647 75.5001 640.096 75.5001 634.5 70.1275 634.5 63.5001Z" stroke="#FFFFFF" stroke-width="3" stroke-miterlimit="8" fill="#1F77B4" fill-rule="evenodd"/><path d="M769.5 63.5001C769.5 56.8726 774.873 51.5001 781.5 51.5001 788.128 51.5001 793.5 56.8726 793.5 63.5001 793.5 70.1275 788.128 75.5001 781.5 75.5001 774.873 75.5001 769.5 70.1275 769.5 63.5001Z" stroke="#FFFFFF" stroke-width="3" stroke-miterlimit="8" fill="#1F77B4" fill-rule="evenodd"/><path d="M903.5 63.5001C903.5 56.8726 908.873 51.5001 915.5 51.5001 922.128 51.5001 927.5 56.8726 927.5 63.5001 927.5 70.1275 922.128 75.5001 915.5 75.5001 908.873 75.5001 903.5 70.1275 903.5 63.5001Z" stroke="#FFFFFF" stroke-width="3" stroke-miterlimit="8" fill="#1F77B4" fill-rule="evenodd"/><path d="M1037.5 63.5001C1037.5 56.8726 1042.87 51.5001 1049.5 51.5001 1056.13 51.5001 1061.5 56.8726 1061.5 63.5001 1061.5 70.1275 1056.13 75.5001 1049.5 75.5001 1042.87 75.5001 1037.5 70.1275 1037.5 63.5001Z" stroke="#FFFFFF" stroke-width="3" stroke-miterlimit="8" fill="#1F77B4" fill-rule="evenodd"/><rect x="232.5" y="303.5" width="24" height="24" stroke="#FFFFFF" stroke-width="3" stroke-miterlimit="8" fill="#FF7F0E"/><rect x="500.5" y="303.5" width="25" height="24" stroke="#FFFFFF" stroke-width="3" stroke-miterlimit="8" fill="#FF7F0E"/><rect x="769.5" y="303.5" width="24" height="24" stroke="#FFFFFF" stroke-width="3" stroke-miterlimit="8" fill="#FF7F0E"/><rect x="1037.5" y="303.5" width="25" height="24" stroke="#FFFFFF" stroke-width="3" stroke-miterlimit="8" fill="#FF7F0E"/><path d="M784 109 784 281.03 778 281.03 778 109ZM772 112 781 94 790 112Z"/><path d="M515 108 515 280.344 509 280.344 509 108ZM503 111 512 93 521 111Z"/><path d="M388.769 106.865 398.687 121.886 393.68 125.192 383.762 110.171ZM401.993 126.893 411.91 141.914 406.903 145.22 396.985 130.199ZM415.216 146.921 425.134 161.942 420.127 165.248 410.209 150.227ZM428.44 166.949 438.358 181.971 433.351 185.277 423.433 170.255ZM441.664 186.978 451.582 201.999 446.575 205.305 436.657 190.284ZM454.888 207.006 464.806 222.027 459.799 225.333 449.881 210.312ZM468.112 227.034 478.03 242.055 473.023 245.361 463.105 230.34ZM481.336 247.062 491.254 262.083 486.247 265.389 476.329 250.368ZM494.56 267.09 502.543 279.181 497.536 282.487 489.553 270.396ZM380.407 115.98 378 96 395.428 106.062Z" fill="#7F7F7F"/><path d="M10.7011 10.9311 20.5259 26.0133 15.4985 29.2882 5.67368 14.206ZM23.8008 31.0407 33.6257 46.1229 28.5983 49.3978 18.7734 34.3156ZM36.9006 51.1503 46.7254 66.2325 41.698 69.5074 31.8732 54.4252ZM50.0004 71.2599 59.8252 86.3421 54.7978 89.617 44.973 74.5348ZM63.1001 91.3695 72.925 106.452 67.8976 109.727 58.0727 94.6444ZM76.1999 111.479 86.0247 126.561 80.9973 129.836 71.1725 114.754ZM89.2997 131.589 99.1245 146.671 94.0971 149.946 84.2723 134.864ZM102.399 151.698 112.224 166.781 107.197 170.055 97.372 154.973ZM115.499 171.808 124.553 185.707 119.526 188.982 110.472 175.083ZM2.28373 19.9946 0 0 17.3659 10.1698Z" fill="#7F7F7F" transform="matrix(-1 0 0 1 647.039 93)"/><path d="M657.701 103.931 667.526 119.013 662.499 122.288 652.674 107.206ZM670.801 124.041 680.626 139.123 675.598 142.398 665.773 127.316ZM683.901 144.15 693.726 159.232 688.698 162.507 678.873 147.425ZM697 164.26 706.825 179.342 701.798 182.617 691.973 167.535ZM710.1 184.369 719.925 199.452 714.898 202.727 705.073 187.644ZM723.2 204.479 733.025 219.561 727.998 222.836 718.173 207.754ZM736.3 224.589 746.125 239.671 741.097 242.946 731.273 227.863ZM749.4 244.698 759.225 259.78 754.197 263.055 744.372 247.973ZM762.5 264.808 771.554 278.707 766.526 281.982 757.472 268.083ZM649.284 112.995 647 93 664.366 103.17Z" fill="#7F7F7F"/><path d="M10.7011 10.9311 20.5259 26.0133 15.4985 29.2882 5.67368 14.206ZM23.8008 31.0407 33.6257 46.1229 28.5983 49.3978 18.7734 34.3156ZM36.9006 51.1503 46.7254 66.2325 41.698 69.5074 31.8732 54.4252ZM50.0004 71.2599 59.8252 86.3421 54.7978 89.617 44.973 74.5348ZM63.1001 91.3695 72.925 106.452 67.8976 109.727 58.0727 94.6444ZM76.1999 111.479 86.0247 126.561 80.9973 129.836 71.1725 114.754ZM89.2997 131.589 99.1245 146.671 94.0971 149.946 84.2723 134.864ZM102.399 151.698 112.224 166.781 107.197 170.055 97.372 154.973ZM115.499 171.808 124.553 185.707 119.526 188.982 110.472 175.083ZM2.28373 19.9946 0 0 17.3659 10.1698Z" fill="#7F7F7F" transform="matrix(-1 0 0 1 915.039 93)"/></g></svg>