<?xml version="1.0" encoding="utf-8" standalone="no"?>
<!DOCTYPE svg PUBLIC "-//W3C//DTD SVG 1.1//EN"
  "http://www.w3.org/Graphics/SVG/1.1/DTD/svg11.dtd">
<svg xmlns:xlink="http://www.w3.org/1999/xlink" width="1080pt" height="360pt" viewBox="0 0 1080 360" xmlns="http://www.w3.org/2000/svg" version="1.1">
 <metadata>
  <rdf:RDF xmlns:dc="http://purl.org/dc/elements/1.1/" xmlns:cc="http://creativecommons.org/ns#" xmlns:rdf="http://www.w3.org/1999/02/22-rdf-syntax-ns#">
   <cc:Work>
    <dc:type rdf:resource="http://purl.org/dc/dcmitype/StillImage"/>
    <dc:date>2025-05-06T15:43:27.774338</dc:date>
    <dc:format>image/svg+xml</dc:format>
    <dc:creator>
     <cc:Agent>
      <dc:title>Matplotlib v3.10.1, https://matplotlib.org/</dc:title>
     </cc:Agent>
    </dc:creator>
   </cc:Work>
  </rdf:RDF>
 </metadata>
 <defs>
  <style type="text/css">*{stroke-linejoin: round; stroke-linecap: butt}</style>
 </defs>
 <g id="figure_1">
  <g id="patch_1">
   <path d="M 0 360 
L 1080 360 
L 1080 0 
L 0 0 
z
" style="fill: #ffffff"/>
  </g>
  <g id="axes_1">
   <g id="line2d_1">
    <path d="M 34.609091 188.04 
L 64.370455 84.442428 
L 94.131818 41.530909 
L 123.893182 84.442428 
L 153.654545 188.04 
L 183.415909 291.637572 
L 213.177273 334.549091 
L 242.938636 291.637572 
L 272.7 188.04 
L 302.461364 84.442428 
L 332.222727 41.530909 
L 361.984091 84.442428 
L 391.745455 188.04 
L 421.506818 291.637572 
L 451.268182 334.549091 
L 481.029545 291.637572 
L 510.790909 188.04 
" style="fill: none; stroke: #000000; stroke-width: 3; stroke-linecap: square"/>
    <defs>
     <path id="mf6d7060f30" d="M -3 3 
L 3 3 
L 3 -3 
L -3 -3 
z
" style="stroke: #000000; stroke-linejoin: miter"/>
    </defs>
    <g>
     <use xlink:href="#mf6d7060f30" x="34.609091" y="188.04" style="stroke: #000000; stroke-linejoin: miter"/>
     <use xlink:href="#mf6d7060f30" x="64.370455" y="84.442428" style="stroke: #000000; stroke-linejoin: miter"/>
     <use xlink:href="#mf6d7060f30" x="94.131818" y="41.530909" style="stroke: #000000; stroke-linejoin: miter"/>
     <use xlink:href="#mf6d7060f30" x="123.893182" y="84.442428" style="stroke: #000000; stroke-linejoin: miter"/>
     <use xlink:href="#mf6d7060f30" x="153.654545" y="188.04" style="stroke: #000000; stroke-linejoin: miter"/>
     <use xlink:href="#mf6d7060f30" x="183.415909" y="291.637572" style="stroke: #000000; stroke-linejoin: miter"/>
     <use xlink:href="#mf6d7060f30" x="213.177273" y="334.549091" style="stroke: #000000; stroke-linejoin: miter"/>
     <use xlink:href="#mf6d7060f30" x="242.938636" y="291.637572" style="stroke: #000000; stroke-linejoin: miter"/>
     <use xlink:href="#mf6d7060f30" x="272.7" y="188.04" style="stroke: #000000; stroke-linejoin: miter"/>
     <use xlink:href="#mf6d7060f30" x="302.461364" y="84.442428" style="stroke: #000000; stroke-linejoin: miter"/>
     <use xlink:href="#mf6d7060f30" x="332.222727" y="41.530909" style="stroke: #000000; stroke-linejoin: miter"/>
     <use xlink:href="#mf6d7060f30" x="361.984091" y="84.442428" style="stroke: #000000; stroke-linejoin: miter"/>
     <use xlink:href="#mf6d7060f30" x="391.745455" y="188.04" style="stroke: #000000; stroke-linejoin: miter"/>
     <use xlink:href="#mf6d7060f30" x="421.506818" y="291.637572" style="stroke: #000000; stroke-linejoin: miter"/>
     <use xlink:href="#mf6d7060f30" x="451.268182" y="334.549091" style="stroke: #000000; stroke-linejoin: miter"/>
     <use xlink:href="#mf6d7060f30" x="481.029545" y="291.637572" style="stroke: #000000; stroke-linejoin: miter"/>
     <use xlink:href="#mf6d7060f30" x="510.790909" y="188.04" style="stroke: #000000; stroke-linejoin: miter"/>
    </g>
   </g>
   <g id="line2d_2">
    <path d="M 34.609091 188.04 
L 64.370455 188.04 
L 94.131818 188.04 
L 123.893182 188.04 
L 153.654545 188.04 
L 183.415909 188.04 
L 213.177273 188.04 
L 242.938636 188.04 
L 272.7 188.04 
L 302.461364 188.04 
L 332.222727 188.04 
L 361.984091 188.04 
L 391.745455 188.04 
L 421.506818 188.04 
L 451.268182 188.04 
L 481.029545 188.04 
L 510.790909 188.04 
" clip-path="url(#p5080871381)" style="fill: none; stroke: #808080; stroke-width: 1.5; stroke-linecap: square"/>
    <defs>
     <path id="mf423a2617e" d="M -2.5 2.5 
L 2.5 2.5 
L 2.5 -2.5 
L -2.5 -2.5 
z
" style="stroke: #808080; stroke-linejoin: miter"/>
    </defs>
    <g clip-path="url(#p5080871381)">
     <use xlink:href="#mf423a2617e" x="34.609091" y="188.04" style="fill: #808080; stroke: #808080; stroke-linejoin: miter"/>
     <use xlink:href="#mf423a2617e" x="64.370455" y="188.04" style="fill: #808080; stroke: #808080; stroke-linejoin: miter"/>
     <use xlink:href="#mf423a2617e" x="94.131818" y="188.04" style="fill: #808080; stroke: #808080; stroke-linejoin: miter"/>
     <use xlink:href="#mf423a2617e" x="123.893182" y="188.04" style="fill: #808080; stroke: #808080; stroke-linejoin: miter"/>
     <use xlink:href="#mf423a2617e" x="153.654545" y="188.04" style="fill: #808080; stroke: #808080; stroke-linejoin: miter"/>
     <use xlink:href="#mf423a2617e" x="183.415909" y="188.04" style="fill: #808080; stroke: #808080; stroke-linejoin: miter"/>
     <use xlink:href="#mf423a2617e" x="213.177273" y="188.04" style="fill: #808080; stroke: #808080; stroke-linejoin: miter"/>
     <use xlink:href="#mf423a2617e" x="242.938636" y="188.04" style="fill: #808080; stroke: #808080; stroke-linejoin: miter"/>
     <use xlink:href="#mf423a2617e" x="272.7" y="188.04" style="fill: #808080; stroke: #808080; stroke-linejoin: miter"/>
     <use xlink:href="#mf423a2617e" x="302.461364" y="188.04" style="fill: #808080; stroke: #808080; stroke-linejoin: miter"/>
     <use xlink:href="#mf423a2617e" x="332.222727" y="188.04" style="fill: #808080; stroke: #808080; stroke-linejoin: miter"/>
     <use xlink:href="#mf423a2617e" x="361.984091" y="188.04" style="fill: #808080; stroke: #808080; stroke-linejoin: miter"/>
     <use xlink:href="#mf423a2617e" x="391.745455" y="188.04" style="fill: #808080; stroke: #808080; stroke-linejoin: miter"/>
     <use xlink:href="#mf423a2617e" x="421.506818" y="188.04" style="fill: #808080; stroke: #808080; stroke-linejoin: miter"/>
     <use xlink:href="#mf423a2617e" x="451.268182" y="188.04" style="fill: #808080; stroke: #808080; stroke-linejoin: miter"/>
     <use xlink:href="#mf423a2617e" x="481.029545" y="188.04" style="fill: #808080; stroke: #808080; stroke-linejoin: miter"/>
     <use xlink:href="#mf423a2617e" x="510.790909" y="188.04" style="fill: #808080; stroke: #808080; stroke-linejoin: miter"/>
    </g>
   </g>
   <g id="text_1">
    <!-- 4-mode of 15 -->
    <g transform="translate(232.469063 20.88) scale(0.12 -0.12)">
     <defs>
      <path id="DejaVuSans-34" d="M 2419 4116 
L 825 1625 
L 2419 1625 
L 2419 4116 
z
M 2253 4666 
L 3047 4666 
L 3047 1625 
L 3713 1625 
L 3713 1100 
L 3047 1100 
L 3047 0 
L 2419 0 
L 2419 1100 
L 313 1100 
L 313 1709 
L 2253 4666 
z
" transform="scale(0.015625)"/>
      <path id="DejaVuSans-2d" d="M 313 2009 
L 1997 2009 
L 1997 1497 
L 313 1497 
L 313 2009 
z
" transform="scale(0.015625)"/>
      <path id="DejaVuSans-6d" d="M 3328 2828 
Q 3544 3216 3844 3400 
Q 4144 3584 4550 3584 
Q 5097 3584 5394 3201 
Q 5691 2819 5691 2113 
L 5691 0 
L 5113 0 
L 5113 2094 
Q 5113 2597 4934 2840 
Q 4756 3084 4391 3084 
Q 3944 3084 3684 2787 
Q 3425 2491 3425 1978 
L 3425 0 
L 2847 0 
L 2847 2094 
Q 2847 2600 2669 2842 
Q 2491 3084 2119 3084 
Q 1678 3084 1418 2786 
Q 1159 2488 1159 1978 
L 1159 0 
L 581 0 
L 581 3500 
L 1159 3500 
L 1159 2956 
Q 1356 3278 1631 3431 
Q 1906 3584 2284 3584 
Q 2666 3584 2933 3390 
Q 3200 3197 3328 2828 
z
" transform="scale(0.015625)"/>
      <path id="DejaVuSans-6f" d="M 1959 3097 
Q 1497 3097 1228 2736 
Q 959 2375 959 1747 
Q 959 1119 1226 758 
Q 1494 397 1959 397 
Q 2419 397 2687 759 
Q 2956 1122 2956 1747 
Q 2956 2369 2687 2733 
Q 2419 3097 1959 3097 
z
M 1959 3584 
Q 2709 3584 3137 3096 
Q 3566 2609 3566 1747 
Q 3566 888 3137 398 
Q 2709 -91 1959 -91 
Q 1206 -91 779 398 
Q 353 888 353 1747 
Q 353 2609 779 3096 
Q 1206 3584 1959 3584 
z
" transform="scale(0.015625)"/>
      <path id="DejaVuSans-64" d="M 2906 2969 
L 2906 4863 
L 3481 4863 
L 3481 0 
L 2906 0 
L 2906 525 
Q 2725 213 2448 61 
Q 2172 -91 1784 -91 
Q 1150 -91 751 415 
Q 353 922 353 1747 
Q 353 2572 751 3078 
Q 1150 3584 1784 3584 
Q 2172 3584 2448 3432 
Q 2725 3281 2906 2969 
z
M 947 1747 
Q 947 1113 1208 752 
Q 1469 391 1925 391 
Q 2381 391 2643 752 
Q 2906 1113 2906 1747 
Q 2906 2381 2643 2742 
Q 2381 3103 1925 3103 
Q 1469 3103 1208 2742 
Q 947 2381 947 1747 
z
" transform="scale(0.015625)"/>
      <path id="DejaVuSans-65" d="M 3597 1894 
L 3597 1613 
L 953 1613 
Q 991 1019 1311 708 
Q 1631 397 2203 397 
Q 2534 397 2845 478 
Q 3156 559 3463 722 
L 3463 178 
Q 3153 47 2828 -22 
Q 2503 -91 2169 -91 
Q 1331 -91 842 396 
Q 353 884 353 1716 
Q 353 2575 817 3079 
Q 1281 3584 2069 3584 
Q 2775 3584 3186 3129 
Q 3597 2675 3597 1894 
z
M 3022 2063 
Q 3016 2534 2758 2815 
Q 2500 3097 2075 3097 
Q 1594 3097 1305 2825 
Q 1016 2553 972 2059 
L 3022 2063 
z
" transform="scale(0.015625)"/>
      <path id="DejaVuSans-20" transform="scale(0.015625)"/>
      <path id="DejaVuSans-66" d="M 2375 4863 
L 2375 4384 
L 1825 4384 
Q 1516 4384 1395 4259 
Q 1275 4134 1275 3809 
L 1275 3500 
L 2222 3500 
L 2222 3053 
L 1275 3053 
L 1275 0 
L 697 0 
L 697 3053 
L 147 3053 
L 147 3500 
L 697 3500 
L 697 3744 
Q 697 4328 969 4595 
Q 1241 4863 1831 4863 
L 2375 4863 
z
" transform="scale(0.015625)"/>
      <path id="DejaVuSans-31" d="M 794 531 
L 1825 531 
L 1825 4091 
L 703 3866 
L 703 4441 
L 1819 4666 
L 2450 4666 
L 2450 531 
L 3481 531 
L 3481 0 
L 794 0 
L 794 531 
z
" transform="scale(0.015625)"/>
      <path id="DejaVuSans-35" d="M 691 4666 
L 3169 4666 
L 3169 4134 
L 1269 4134 
L 1269 2991 
Q 1406 3038 1543 3061 
Q 1681 3084 1819 3084 
Q 2600 3084 3056 2656 
Q 3513 2228 3513 1497 
Q 3513 744 3044 326 
Q 2575 -91 1722 -91 
Q 1428 -91 1123 -41 
Q 819 9 494 109 
L 494 744 
Q 775 591 1075 516 
Q 1375 441 1709 441 
Q 2250 441 2565 725 
Q 2881 1009 2881 1497 
Q 2881 1984 2565 2268 
Q 2250 2553 1709 2553 
Q 1456 2553 1204 2497 
Q 953 2441 691 2322 
L 691 4666 
z
" transform="scale(0.015625)"/>
     </defs>
     <use xlink:href="#DejaVuSans-34"/>
     <use xlink:href="#DejaVuSans-2d" transform="translate(63.623047 0)"/>
     <use xlink:href="#DejaVuSans-6d" transform="translate(99.707031 0)"/>
     <use xlink:href="#DejaVuSans-6f" transform="translate(197.119141 0)"/>
     <use xlink:href="#DejaVuSans-64" transform="translate(258.300781 0)"/>
     <use xlink:href="#DejaVuSans-65" transform="translate(321.777344 0)"/>
     <use xlink:href="#DejaVuSans-20" transform="translate(383.300781 0)"/>
     <use xlink:href="#DejaVuSans-6f" transform="translate(415.087891 0)"/>
     <use xlink:href="#DejaVuSans-66" transform="translate(476.269531 0)"/>
     <use xlink:href="#DejaVuSans-20" transform="translate(511.474609 0)"/>
     <use xlink:href="#DejaVuSans-31" transform="translate(543.261719 0)"/>
     <use xlink:href="#DejaVuSans-35" transform="translate(606.884766 0)"/>
    </g>
   </g>
  </g>
  <g id="axes_2">
   <g id="line2d_3">
    <path d="M 569.209091 188.04 
L 628.731818 41.530909 
L 688.254545 188.04 
L 747.777273 334.549091 
L 807.3 188.04 
L 866.822727 41.530909 
L 926.345455 188.04 
L 985.868182 334.549091 
L 1045.390909 188.04 
" style="fill: none; stroke: #000000; stroke-width: 3; stroke-linecap: square"/>
    <g>
     <use xlink:href="#mf6d7060f30" x="569.209091" y="188.04" style="stroke: #000000; stroke-linejoin: miter"/>
     <use xlink:href="#mf6d7060f30" x="628.731818" y="41.530909" style="stroke: #000000; stroke-linejoin: miter"/>
     <use xlink:href="#mf6d7060f30" x="688.254545" y="188.04" style="stroke: #000000; stroke-linejoin: miter"/>
     <use xlink:href="#mf6d7060f30" x="747.777273" y="334.549091" style="stroke: #000000; stroke-linejoin: miter"/>
     <use xlink:href="#mf6d7060f30" x="807.3" y="188.04" style="stroke: #000000; stroke-linejoin: miter"/>
     <use xlink:href="#mf6d7060f30" x="866.822727" y="41.530909" style="stroke: #000000; stroke-linejoin: miter"/>
     <use xlink:href="#mf6d7060f30" x="926.345455" y="188.04" style="stroke: #000000; stroke-linejoin: miter"/>
     <use xlink:href="#mf6d7060f30" x="985.868182" y="334.549091" style="stroke: #000000; stroke-linejoin: miter"/>
     <use xlink:href="#mf6d7060f30" x="1045.390909" y="188.04" style="stroke: #000000; stroke-linejoin: miter"/>
    </g>
   </g>
   <g id="line2d_4">
    <path d="M 569.209091 188.04 
L 628.731818 188.04 
L 688.254545 188.04 
L 747.777273 188.04 
L 807.3 188.04 
L 866.822727 188.04 
L 926.345455 188.04 
L 985.868182 188.04 
L 1045.390909 188.04 
" clip-path="url(#p82f02a648f)" style="fill: none; stroke: #808080; stroke-width: 1.5; stroke-linecap: square"/>
    <g clip-path="url(#p82f02a648f)">
     <use xlink:href="#mf423a2617e" x="569.209091" y="188.04" style="fill: #808080; stroke: #808080; stroke-linejoin: miter"/>
     <use xlink:href="#mf423a2617e" x="628.731818" y="188.04" style="fill: #808080; stroke: #808080; stroke-linejoin: miter"/>
     <use xlink:href="#mf423a2617e" x="688.254545" y="188.04" style="fill: #808080; stroke: #808080; stroke-linejoin: miter"/>
     <use xlink:href="#mf423a2617e" x="747.777273" y="188.04" style="fill: #808080; stroke: #808080; stroke-linejoin: miter"/>
     <use xlink:href="#mf423a2617e" x="807.3" y="188.04" style="fill: #808080; stroke: #808080; stroke-linejoin: miter"/>
     <use xlink:href="#mf423a2617e" x="866.822727" y="188.04" style="fill: #808080; stroke: #808080; stroke-linejoin: miter"/>
     <use xlink:href="#mf423a2617e" x="926.345455" y="188.04" style="fill: #808080; stroke: #808080; stroke-linejoin: miter"/>
     <use xlink:href="#mf423a2617e" x="985.868182" y="188.04" style="fill: #808080; stroke: #808080; stroke-linejoin: miter"/>
     <use xlink:href="#mf423a2617e" x="1045.390909" y="188.04" style="fill: #808080; stroke: #808080; stroke-linejoin: miter"/>
    </g>
   </g>
   <g id="text_2">
    <!-- 4-mode of 7 -->
    <g transform="translate(770.886562 20.88) scale(0.12 -0.12)">
     <defs>
      <path id="DejaVuSans-37" d="M 525 4666 
L 3525 4666 
L 3525 4397 
L 1831 0 
L 1172 0 
L 2766 4134 
L 525 4134 
L 525 4666 
z
" transform="scale(0.015625)"/>
     </defs>
     <use xlink:href="#DejaVuSans-34"/>
     <use xlink:href="#DejaVuSans-2d" transform="translate(63.623047 0)"/>
     <use xlink:href="#DejaVuSans-6d" transform="translate(99.707031 0)"/>
     <use xlink:href="#DejaVuSans-6f" transform="translate(197.119141 0)"/>
     <use xlink:href="#DejaVuSans-64" transform="translate(258.300781 0)"/>
     <use xlink:href="#DejaVuSans-65" transform="translate(321.777344 0)"/>
     <use xlink:href="#DejaVuSans-20" transform="translate(383.300781 0)"/>
     <use xlink:href="#DejaVuSans-6f" transform="translate(415.087891 0)"/>
     <use xlink:href="#DejaVuSans-66" transform="translate(476.269531 0)"/>
     <use xlink:href="#DejaVuSans-20" transform="translate(511.474609 0)"/>
     <use xlink:href="#DejaVuSans-37" transform="translate(543.261719 0)"/>
    </g>
   </g>
  </g>
 </g>
 <defs>
  <clipPath id="p5080871381">
   <rect x="10.8" y="26.88" width="523.8" height="322.32"/>
  </clipPath>
  <clipPath id="p82f02a648f">
   <rect x="545.4" y="26.88" width="523.8" height="322.32"/>
  </clipPath>
 </defs>
</svg>
