<?xml version="1.0" encoding="utf-8" standalone="no"?>
<!DOCTYPE svg PUBLIC "-//W3C//DTD SVG 1.1//EN"
  "http://www.w3.org/Graphics/SVG/1.1/DTD/svg11.dtd">
<svg xmlns:xlink="http://www.w3.org/1999/xlink" width="864pt" height="432pt" viewBox="0 0 864 432" xmlns="http://www.w3.org/2000/svg" version="1.1">
 <metadata>
  <rdf:RDF xmlns:dc="http://purl.org/dc/elements/1.1/" xmlns:cc="http://creativecommons.org/ns#" xmlns:rdf="http://www.w3.org/1999/02/22-rdf-syntax-ns#">
   <cc:Work>
    <dc:type rdf:resource="http://purl.org/dc/dcmitype/StillImage"/>
    <dc:date>2025-05-03T15:57:34.042449</dc:date>
    <dc:format>image/svg+xml</dc:format>
    <dc:creator>
     <cc:Agent>
      <dc:title>Matplotlib v3.10.1, https://matplotlib.org/</dc:title>
     </cc:Agent>
    </dc:creator>
   </cc:Work>
  </rdf:RDF>
 </metadata>
 <defs>
  <style type="text/css">*{stroke-linejoin: round; stroke-linecap: butt}</style>
 </defs>
 <g id="figure_1">
  <g id="patch_1">
   <path d="M 0 432 
L 864 432 
L 864 0 
L 0 0 
L 0 432 
z
" style="fill: none"/>
  </g>
  <g id="axes_1">
   <g id="line2d_1">
    <path d="M 49.090909 186.707673 
L 58.78481 184.29792 
L 68.478711 294.589118 
L 78.172612 180.165759 
L 87.866513 229.243807 
L 97.560414 251.787156 
L 107.254315 311.054925 
L 116.948216 317.029438 
L 126.642117 175.972076 
L 136.336018 278.347796 
L 146.029919 314.333323 
L 155.72382 203.108705 
L 165.417722 236.02549 
L 175.111623 285.675622 
L 184.805524 200.844645 
L 194.499425 402.545455 
L 204.193326 240.57308 
L 213.887227 349.113277 
L 223.581128 158.597604 
L 233.275029 297.886167 
L 242.96893 303.399341 
L 252.662831 378.860468 
L 262.356732 284.288826 
L 272.050633 246.937393 
L 281.744534 310.64756 
L 291.438435 250.745074 
L 301.132336 109.651315 
L 310.826237 334.457031 
L 320.520138 297.292749 
L 330.214039 249.080055 
L 339.90794 300.894713 
L 349.601841 134.774032 
L 359.295742 254.624585 
L 368.989643 214.46399 
L 378.683544 317.836351 
L 388.377445 221.575866 
L 398.071346 220.606827 
L 407.765247 362.490201 
L 417.459148 254.022706 
L 427.153049 238.631538 
L 436.846951 213.253261 
L 446.540852 259.645057 
L 456.234753 281.283201 
L 465.928654 351.652429 
L 475.622555 250.123971 
L 485.316456 276.751872 
L 495.010357 172.347314 
L 504.704258 241.659977 
L 514.398159 366.093512 
L 524.09206 216.760124 
L 533.785961 330.562594 
L 543.479862 182.218368 
L 553.173763 288.23474 
L 562.867664 342.065116 
L 572.561565 370.227908 
L 582.255466 29.454545 
L 591.949367 298.530339 
L 601.643268 196.512272 
L 611.337169 310.117299 
L 621.03107 320.927237 
L 630.724971 214.916144 
L 640.418872 253.160405 
L 650.112773 325.338496 
L 659.806674 316.914592 
L 669.500575 249.03553 
L 679.194476 300.141817 
L 688.888377 234.400226 
L 698.582278 136.692786 
L 708.27618 317.358473 
L 717.970081 224.389049 
L 727.663982 253.48175 
L 737.357883 367.301595 
L 747.051784 253.905242 
L 756.745685 227.389801 
L 766.439586 249.542164 
L 776.133487 75.831518 
L 785.827388 301.55003 
L 795.521289 325.661112 
L 805.21519 193.622051 
L 814.909091 334.462658 
" clip-path="url(#pa220891813)" style="fill: none; stroke: #1f77b4; stroke-width: 1.5; stroke-linecap: square"/>
   </g>
   <g id="line2d_2">
    <path d="M 49.090909 208.763226 
L 58.78481 221.864904 
L 68.478711 219.684266 
L 78.172612 234.666228 
L 87.866513 220.398907 
L 97.560414 264.028629 
L 107.254315 293.290506 
L 116.948216 268.018813 
L 126.642117 257.116437 
L 136.336018 256.217732 
L 146.029919 265.263275 
L 155.72382 251.15584 
L 165.417722 241.603273 
L 175.111623 240.848586 
L 184.805524 296.35524 
L 194.499425 281.32106 
L 204.193326 330.743937 
L 213.887227 249.427987 
L 223.581128 268.53235 
L 233.275029 253.294371 
L 242.96893 326.715325 
L 252.662831 322.182878 
L 262.356732 303.362229 
L 272.050633 280.624593 
L 281.744534 269.443342 
L 291.438435 223.681316 
L 301.132336 231.617806 
L 310.826237 247.133698 
L 320.520138 293.609945 
L 330.214039 282.422506 
L 339.90794 228.2496 
L 349.601841 230.097776 
L 359.295742 201.287536 
L 368.989643 262.308309 
L 378.683544 251.292069 
L 388.377445 253.339681 
L 398.071346 268.224298 
L 407.765247 279.039911 
L 417.459148 285.048148 
L 427.153049 235.302502 
L 436.846951 237.176619 
L 446.540852 251.39384 
L 456.234753 297.526896 
L 465.928654 294.3532 
L 475.622555 292.842757 
L 485.316456 233.074385 
L 495.010357 230.253054 
L 504.704258 260.033601 
L 514.398159 274.837871 
L 524.09206 304.472077 
L 533.785961 243.180362 
L 543.479862 267.005234 
L 553.173763 270.839408 
L 562.867664 333.509255 
L 572.561565 247.24919 
L 582.255466 232.737598 
L 591.949367 174.832385 
L 601.643268 268.386637 
L 611.337169 275.852269 
L 621.03107 281.986893 
L 630.724971 263.001262 
L 640.418872 264.471682 
L 650.112773 298.471164 
L 659.806674 297.096206 
L 669.500575 288.697313 
L 679.194476 261.192525 
L 688.888377 223.744943 
L 698.582278 229.483828 
L 708.27618 226.146769 
L 717.970081 265.076424 
L 727.663982 281.724131 
L 737.357883 291.562862 
L 747.051784 282.865546 
L 756.745685 243.612402 
L 766.439586 184.254494 
L 776.133487 208.97457 
L 785.827388 234.347553 
L 795.521289 273.611064 
L 805.21519 284.58194 
L 814.909091 261.122931 
" clip-path="url(#pa220891813)" style="fill: none; stroke: #ff7f0e; stroke-opacity: 0.7; stroke-width: 1.5; stroke-linecap: square"/>
   </g>
   <g id="line2d_3">
    <path d="M 49.090909 228.637404 
L 58.78481 216.770798 
L 68.478711 225.405132 
L 78.172612 224.916467 
L 87.866513 239.697921 
L 97.560414 259.239347 
L 107.254315 275.112649 
L 116.948216 272.808585 
L 126.642117 260.450994 
L 136.336018 259.532481 
L 146.029919 257.545615 
L 155.72382 252.674129 
L 165.417722 244.535899 
L 175.111623 259.602366 
L 184.805524 272.841629 
L 194.499425 302.806746 
L 204.193326 287.164328 
L 213.887227 282.901425 
L 223.581128 257.084902 
L 233.275029 282.847348 
L 242.96893 300.730858 
L 252.662831 317.420144 
L 262.356732 302.056566 
L 272.050633 284.476721 
L 281.744534 257.916417 
L 291.438435 241.580822 
L 301.132336 234.144273 
L 310.826237 257.453816 
L 320.520138 274.388716 
L 330.214039 268.094017 
L 339.90794 246.923294 
L 349.601841 219.878304 
L 359.295742 231.231207 
L 368.989643 238.295971 
L 378.683544 255.646686 
L 388.377445 257.618683 
L 398.071346 266.867964 
L 407.765247 277.437453 
L 417.459148 266.463521 
L 427.153049 252.50909 
L 436.846951 241.290987 
L 446.540852 262.032451 
L 456.234753 281.091312 
L 465.928654 294.907618 
L 475.622555 273.423448 
L 485.316456 252.056732 
L 495.010357 241.120347 
L 504.704258 255.041509 
L 514.398159 279.781183 
L 524.09206 274.163437 
L 533.785961 271.552557 
L 543.479862 260.341668 
L 553.173763 290.451299 
L 562.867664 283.865951 
L 572.561565 271.165348 
L 582.255466 218.273058 
L 591.949367 225.318873 
L 601.643268 239.69043 
L 611.337169 275.4086 
L 621.03107 273.613475 
L 630.724971 269.819945 
L 640.418872 275.314702 
L 650.112773 286.679684 
L 659.806674 294.754894 
L 669.500575 282.328681 
L 679.194476 257.87826 
L 688.888377 238.140432 
L 698.582278 226.458514 
L 708.27618 240.235674 
L 717.970081 257.649108 
L 727.663982 279.454472 
L 737.357883 285.38418 
L 747.051784 272.68027 
L 756.745685 236.910814 
L 766.439586 212.280489 
L 776.133487 209.192206 
L 785.827388 238.977729 
L 795.521289 264.180186 
L 805.21519 273.105312 
L 814.909091 266.996319 
" clip-path="url(#pa220891813)" style="fill: none; stroke: #2ca02c; stroke-opacity: 0.7; stroke-width: 1.5; stroke-linecap: square"/>
   </g>
   <g id="line2d_4">
    <path d="M 49.090909 233.564096 
L 58.78481 223.604445 
L 68.478711 222.364133 
L 78.172612 230.006507 
L 87.866513 241.284579 
L 97.560414 258.016639 
L 107.254315 269.053527 
L 116.948216 269.457409 
L 126.642117 264.26402 
L 136.336018 259.176363 
L 146.029919 256.584075 
L 155.72382 251.585215 
L 165.417722 252.270798 
L 175.111623 258.993298 
L 184.805524 278.416914 
L 194.499425 287.604234 
L 204.193326 290.9575 
L 213.887227 275.716885 
L 223.581128 274.277892 
L 233.275029 280.221036 
L 242.96893 300.332783 
L 252.662831 306.735856 
L 262.356732 301.317811 
L 272.050633 281.483235 
L 281.744534 261.324653 
L 291.438435 244.547171 
L 301.132336 244.39297 
L 310.826237 255.328935 
L 320.520138 266.645516 
L 330.214039 263.135342 
L 339.90794 244.965205 
L 349.601841 232.677602 
L 359.295742 229.801827 
L 368.989643 241.724621 
L 378.683544 250.520447 
L 388.377445 260.044444 
L 398.071346 267.308033 
L 407.765247 270.256312 
L 417.459148 265.470021 
L 427.153049 253.421199 
L 436.846951 251.944176 
L 446.540852 261.471583 
L 456.234753 279.343794 
L 465.928654 283.140792 
L 475.622555 273.462599 
L 485.316456 255.533509 
L 495.010357 249.406196 
L 504.704258 258.64768 
L 514.398159 269.662043 
L 524.09206 275.165726 
L 533.785961 268.685887 
L 543.479862 274.115175 
L 553.173763 278.219639 
L 562.867664 281.827532 
L 572.561565 257.768119 
L 582.255466 238.252426 
L 591.949367 227.760787 
L 601.643268 246.805968 
L 611.337169 262.904168 
L 621.03107 272.94734 
L 630.724971 272.916041 
L 640.418872 277.271444 
L 650.112773 285.583094 
L 659.806674 287.921086 
L 669.500575 278.320612 
L 679.194476 259.449124 
L 688.888377 240.825735 
L 698.582278 234.944873 
L 708.27618 241.447765 
L 717.970081 259.113085 
L 727.663982 274.162587 
L 737.357883 279.172974 
L 747.051784 264.991755 
L 756.745685 240.623858 
L 766.439586 219.46117 
L 776.133487 220.150141 
L 785.827388 237.45004 
L 795.521289 258.754409 
L 805.21519 268.093939 
L 814.909091 265.128572 
" clip-path="url(#pa220891813)" style="fill: none; stroke: #d62728; stroke-opacity: 0.7; stroke-width: 1.5; stroke-linecap: square"/>
   </g>
   <g id="line2d_5">
    <path d="M 49.090909 237.484208 
L 58.78481 226.510891 
L 68.478711 225.325028 
L 78.172612 231.218406 
L 87.866513 243.102575 
L 97.560414 256.118248 
L 107.254315 265.509192 
L 116.948216 267.591652 
L 126.642117 264.299264 
L 136.336018 260.008153 
L 146.029919 255.781884 
L 155.72382 253.480029 
L 165.417722 254.283104 
L 175.111623 263.227003 
L 184.805524 275.004815 
L 194.499425 285.659549 
L 204.193326 284.75954 
L 213.887227 280.317425 
L 223.581128 276.738604 
L 233.275029 284.943904 
L 242.96893 295.763225 
L 252.662831 302.795483 
L 262.356732 296.512301 
L 272.050633 281.375233 
L 281.744534 262.451686 
L 291.438435 250.088265 
L 301.132336 248.089692 
L 310.826237 255.455807 
L 320.520138 261.703265 
L 330.214039 258.248688 
L 339.90794 246.92605 
L 349.601841 235.814878 
L 359.295742 234.734683 
L 368.989643 240.682299 
L 378.683544 250.763171 
L 388.377445 259.290975 
L 398.071346 265.869596 
L 407.765247 267.678122 
L 417.459148 263.049177 
L 427.153049 256.945132 
L 436.846951 255.612319 
L 446.540852 264.253184 
L 456.234753 274.652057 
L 465.928654 278.649062 
L 475.622555 270.7123 
L 485.316456 259.467435 
L 495.010357 254.529128 
L 504.704258 259.23864 
L 514.398159 267.825149 
L 524.09206 271.171219 
L 533.785961 272.655596 
L 543.479862 273.673567 
L 553.173763 278.054115 
L 562.867664 272.605097 
L 572.561565 259.282692 
L 582.255466 241.260444 
L 591.949367 237.606394 
L 601.643268 245.823641 
L 611.337169 260.885825 
L 621.03107 269.589183 
L 630.724971 274.378275 
L 640.418872 278.590193 
L 650.112773 283.591875 
L 659.806674 283.941597 
L 669.500575 275.230274 
L 679.194476 259.531824 
L 688.888377 245.073244 
L 698.582278 239.072791 
L 708.27618 245.168574 
L 717.970081 258.241146 
L 727.663982 270.816215 
L 737.357883 272.775772 
L 747.051784 261.596196 
L 756.745685 241.692261 
L 766.439586 226.745056 
L 776.133487 225.687117 
L 785.827388 238.784864 
L 795.521289 254.766129 
L 805.21519 263.992306 
L 814.909091 262.835531 
" clip-path="url(#pa220891813)" style="fill: none; stroke: #9467bd; stroke-opacity: 0.7; stroke-width: 1.5; stroke-linecap: square"/>
   </g>
   <g id="line2d_6">
    <path d="M 49.090909 239.759728 
L 58.78481 229.773376 
L 68.478711 227.684775 
L 78.172612 233.215336 
L 87.866513 243.479743 
L 97.560414 254.910005 
L 107.254315 263.073031 
L 116.948216 265.800036 
L 126.642117 263.966356 
L 136.336018 260.029767 
L 146.029919 256.423356 
L 155.72382 254.515006 
L 165.417722 256.996712 
L 175.111623 264.171641 
L 184.805524 274.630456 
L 194.499425 281.807968 
L 204.193326 283.578838 
L 213.887227 280.60519 
L 223.581128 280.666645 
L 233.275029 285.815245 
L 242.96893 294.500871 
L 252.662831 298.357003 
L 262.356732 293.561006 
L 272.050633 280.113073 
L 281.744534 264.638395 
L 291.438435 253.543214 
L 301.132336 251.211255 
L 310.826237 255.082921 
L 320.520138 258.469253 
L 330.214039 255.626001 
L 339.90794 246.996538 
L 349.601841 239.158537 
L 359.295742 237.077287 
L 368.989643 242.060051 
L 378.683544 250.245481 
L 388.377445 258.641247 
L 398.071346 264.279564 
L 407.765247 265.532299 
L 417.459148 262.557477 
L 427.153049 258.535543 
L 436.846951 258.936879 
L 446.540852 264.839187 
L 456.234753 272.518101 
L 465.928654 274.67114 
L 475.622555 269.609599 
L 485.316456 261.569621 
L 495.010357 257.745068 
L 504.704258 260.530972 
L 514.398159 266.078336 
L 524.09206 270.550655 
L 533.785961 272.500127 
L 543.479862 274.794426 
L 553.173763 274.777593 
L 562.867664 269.980635 
L 572.561565 257.716078 
L 582.255466 246.049843 
L 591.949367 241.563493 
L 601.643268 248.105287 
L 611.337169 258.766216 
L 621.03107 268.284428 
L 630.724971 274.185884 
L 640.418872 278.853447 
L 650.112773 282.041222 
L 659.806674 280.921249 
L 669.500575 272.901232 
L 679.194476 259.945114 
L 688.888377 247.89262 
L 698.582278 243.10487 
L 708.27618 247.49417 
L 717.970081 258.075312 
L 727.663982 267.277711 
L 737.357883 268.396061 
L 747.051784 258.688076 
L 756.745685 243.344504 
L 766.439586 231.374811 
L 776.133487 230.405679 
L 785.827388 239.746037 
L 795.521289 252.514433 
L 805.21519 260.531322 
L 814.909091 260.703974 
" clip-path="url(#pa220891813)" style="fill: none; stroke: #8c564b; stroke-opacity: 0.7; stroke-width: 1.5; stroke-linecap: square"/>
   </g>
   <g id="line2d_7">
    <path d="M 49.090909 241.605729 
L 58.78481 232.40596 
L 68.478711 230.224496 
L 78.172612 234.793285 
L 87.866513 243.868362 
L 97.560414 253.820926 
L 107.254315 261.261024 
L 116.948216 264.279808 
L 126.642117 263.265387 
L 136.336018 260.139826 
L 146.029919 256.989376 
L 155.72382 255.978358 
L 165.417722 258.56112 
L 175.111623 265.26627 
L 184.805524 273.536688 
L 194.499425 280.005754 
L 204.193326 281.997332 
L 213.887227 281.616891 
L 223.581128 282.36236 
L 233.275029 286.994253 
L 242.96893 292.891039 
L 252.662831 295.47296 
L 262.356732 290.677027 
L 272.050633 279.437491 
L 281.744534 266.098227 
L 291.438435 256.464288 
L 301.132336 253.27913 
L 310.826237 254.921143 
L 320.520138 256.392725 
L 330.214039 253.697264 
L 339.90794 247.260359 
L 349.601841 241.077454 
L 359.295742 239.431958 
L 368.989643 243.127606 
L 378.683544 250.315593 
L 388.377445 257.722098 
L 398.071346 262.817703 
L 407.765247 264.123113 
L 417.459148 262.20844 
L 427.153049 260.009966 
L 436.846951 260.770536 
L 446.540852 265.431389 
L 456.234753 270.676142 
L 465.928654 272.26628 
L 475.622555 268.616787 
L 485.316456 262.974763 
L 495.010357 259.948554 
L 504.704258 261.451459 
L 514.398159 265.719988 
L 524.09206 269.709706 
L 533.785961 272.615069 
L 543.479862 274.024049 
L 553.173763 273.184218 
L 562.867664 267.491435 
L 572.561565 257.915519 
L 582.255466 248.443138 
L 591.949367 245.239541 
L 601.643268 249.478332 
L 611.337169 258.38531 
L 621.03107 267.078843 
L 630.724971 273.774586 
L 640.418872 278.360184 
L 650.112773 280.605306 
L 659.806674 278.621234 
L 669.500575 271.255865 
L 679.194476 260.246322 
L 688.888377 250.314201 
L 698.582278 246.163887 
L 708.27618 249.558117 
L 717.970081 257.615731 
L 727.663982 264.583028 
L 737.357883 264.787283 
L 747.051784 256.809547 
L 756.745685 244.469131 
L 766.439586 235.041665 
L 776.133487 233.842176 
L 785.827388 240.888716 
L 795.521289 250.930597 
L 805.21519 257.916577 
L 814.909091 258.839794 
" clip-path="url(#pa220891813)" style="fill: none; stroke: #e377c2; stroke-opacity: 0.7; stroke-width: 1.5; stroke-linecap: square"/>
   </g>
   <g id="line2d_8">
    <path d="M 49.090909 243.098591 
L 58.78481 234.745395 
L 68.478711 232.47458 
L 78.172612 236.295381 
L 87.866513 244.160858 
L 97.560414 252.983437 
L 107.254315 259.787253 
L 116.948216 262.935406 
L 126.642117 262.561674 
L 136.336018 260.13153 
L 146.029919 257.70252 
L 155.72382 257.176284 
L 165.417722 259.935249 
L 175.111623 265.788026 
L 184.805524 272.936237 
L 194.499425 278.513258 
L 204.193326 281.206659 
L 213.887227 281.992194 
L 223.581128 283.657835 
L 233.275029 287.415884 
L 242.96893 291.786084 
L 252.662831 293.013676 
L 262.356732 288.529159 
L 272.050633 278.737582 
L 281.744534 267.333336 
L 291.438435 258.613882 
L 301.132336 254.888187 
L 310.826237 254.864333 
L 320.520138 255.003711 
L 330.214039 252.450116 
L 339.90794 247.345026 
L 349.601841 242.589924 
L 359.295742 241.21234 
L 368.989643 244.291719 
L 378.683544 250.388432 
L 388.377445 256.951798 
L 398.071346 261.554305 
L 407.765247 263.049752 
L 417.459148 262.11384 
L 427.153049 260.996314 
L 436.846951 262.07063 
L 446.540852 265.626022 
L 456.234753 269.457937 
L 465.928654 270.519736 
L 475.622555 267.95261 
L 485.316456 263.846701 
L 495.010357 261.458258 
L 504.704258 262.373333 
L 514.398159 265.627051 
L 524.09206 269.348254 
L 533.785961 272.116275 
L 543.479862 273.274445 
L 553.173763 271.566567 
L 562.867664 266.197057 
L 572.561565 257.950031 
L 582.255466 250.532733 
L 591.949367 247.720337 
L 601.643268 251.034394 
L 611.337169 258.314162 
L 621.03107 266.412913 
L 630.724971 273.071204 
L 640.418872 277.580025 
L 650.112773 279.195575 
L 659.806674 276.827468 
L 669.500575 270.04114 
L 679.194476 260.605463 
L 688.888377 252.24147 
L 698.582278 248.678735 
L 708.27618 251.112578 
L 717.970081 257.252292 
L 727.663982 262.32868 
L 737.357883 262.059952 
L 747.051784 255.35532 
L 756.745685 245.440114 
L 766.439586 237.784324 
L 776.133487 236.590852 
L 785.827388 241.887163 
L 795.521289 249.911963 
L 805.21519 255.895656 
L 814.909091 257.346818 
" clip-path="url(#pa220891813)" style="fill: none; stroke: #7f7f7f; stroke-opacity: 0.7; stroke-width: 1.5; stroke-linecap: square"/>
   </g>
   <g id="line2d_9">
    <path d="M 49.090909 244.376023 
L 58.78481 236.772855 
L 68.478711 234.505119 
L 78.172612 237.643606 
L 87.866513 244.479892 
L 97.560414 252.310516 
L 107.254315 258.568699 
L 116.948216 261.761444 
L 126.642117 261.876203 
L 136.336018 260.131908 
L 146.029919 258.336778 
L 155.72382 258.271351 
L 165.417722 260.96652 
L 175.111623 266.219837 
L 184.805524 272.412507 
L 194.499425 277.552051 
L 204.193326 280.570704 
L 213.887227 282.285563 
L 223.581128 284.355304 
L 233.275029 287.619934 
L 242.96893 290.738548 
L 252.662831 291.10964 
L 262.356732 286.760139 
L 272.050633 278.200026 
L 281.744534 268.228266 
L 291.438435 260.278468 
L 301.132336 256.122134 
L 310.826237 254.918744 
L 320.520138 254.106053 
L 330.214039 251.599618 
L 339.90794 247.461688 
L 349.601841 243.715763 
L 359.295742 242.697994 
L 368.989643 245.297497 
L 378.683544 250.543983 
L 388.377445 256.298178 
L 398.071346 260.518618 
L 407.765247 262.239299 
L 417.459148 262.053302 
L 427.153049 261.726928 
L 436.846951 262.897656 
L 446.540852 265.718197 
L 456.234753 268.534565 
L 465.928654 269.310094 
L 475.622555 267.439682 
L 485.316456 264.41919 
L 495.010357 262.559431 
L 504.704258 263.152881 
L 514.398159 265.782879 
L 524.09206 269.030527 
L 533.785961 271.579658 
L 543.479862 272.319096 
L 553.173763 270.346023 
L 562.867664 265.237885 
L 572.561565 258.226607 
L 582.255466 252.0677 
L 591.949367 249.762488 
L 601.643268 252.356298 
L 611.337169 258.587156 
L 621.03107 265.93276 
L 630.724971 272.354714 
L 640.418872 276.615602 
L 650.112773 277.86769 
L 659.806674 275.354728 
L 669.500575 269.158024 
L 679.194476 260.962691 
L 688.888377 253.841889 
L 698.582278 250.677594 
L 708.27618 252.347868 
L 717.970081 256.89785 
L 727.663982 260.546975 
L 737.357883 259.914651 
L 747.051784 254.285129 
L 756.745685 246.193253 
L 766.439586 239.93843 
L 776.133487 238.754113 
L 785.827388 242.79666 
L 795.521289 249.231594 
L 805.21519 254.384812 
L 814.909091 256.175519 
" clip-path="url(#pa220891813)" style="fill: none; stroke: #bcbd22; stroke-opacity: 0.7; stroke-width: 1.5; stroke-linecap: square"/>
   </g>
   <g id="line2d_10">
    <path d="M 49.090909 245.477654 
L 58.78481 238.551332 
L 68.478711 236.307193 
L 78.172612 238.876206 
L 87.866513 244.811338 
L 97.560414 251.786369 
L 107.254315 257.546886 
L 116.948216 260.735449 
L 126.642117 261.256518 
L 136.336018 260.114963 
L 146.029919 258.913346 
L 155.72382 259.19155 
L 165.417722 261.819236 
L 175.111623 266.532955 
L 184.805524 272.061465 
L 194.499425 276.845087 
L 204.193326 280.136106 
L 213.887227 282.403857 
L 223.581128 284.7536 
L 233.275029 287.571262 
L 242.96893 289.822707 
L 252.662831 289.536109 
L 262.356732 285.356601 
L 272.050633 277.729477 
L 281.744534 268.902253 
L 291.438435 261.542956 
L 301.132336 257.106449 
L 310.826237 255.048977 
L 320.520138 253.541471 
L 330.214039 251.055786 
L 339.90794 247.592356 
L 349.601841 244.625149 
L 359.295742 243.903751 
L 368.989643 246.179825 
L 378.683544 250.71322 
L 388.377445 255.786927 
L 398.071346 259.685365 
L 407.765247 261.60374 
L 417.459148 262.00651 
L 427.153049 262.225962 
L 436.846951 263.447593 
L 446.540852 265.716806 
L 456.234753 267.854285 
L 465.928654 268.428114 
L 475.622555 267.056322 
L 485.316456 264.806101 
L 495.010357 263.377167 
L 504.704258 263.83173 
L 514.398159 265.988762 
L 524.09206 268.797688 
L 533.785961 270.976427 
L 543.479862 271.414926 
L 553.173763 269.301001 
L 562.867664 264.603505 
L 572.561565 258.510731 
L 582.255466 253.352265 
L 591.949367 251.395495 
L 601.643268 253.568647 
L 611.337169 258.958738 
L 621.03107 265.624877 
L 630.724971 271.634359 
L 640.418872 275.612668 
L 650.112773 276.612673 
L 659.806674 274.126814 
L 669.500575 268.491814 
L 679.194476 261.320868 
L 688.888377 255.160725 
L 698.582278 252.289117 
L 708.27618 253.307771 
L 717.970081 256.597565 
L 727.663982 259.119825 
L 737.357883 258.248918 
L 747.051784 253.464344 
L 756.745685 246.805604 
L 766.439586 241.628599 
L 776.133487 240.496401 
L 785.827388 243.594122 
L 795.521289 248.804355 
L 805.21519 253.263975 
L 814.909091 255.281472 
" clip-path="url(#pa220891813)" style="fill: none; stroke: #17becf; stroke-opacity: 0.7; stroke-width: 1.5; stroke-linecap: square"/>
   </g>
   <g id="line2d_11">
    <path d="M 49.090909 246.43769 
L 58.78481 240.11206 
L 68.478711 237.911577 
L 78.172612 239.998246 
L 87.866513 245.157971 
L 97.560414 251.381531 
L 107.254315 256.689568 
L 116.948216 259.846284 
L 126.642117 260.70231 
L 136.336018 260.094942 
L 146.029919 259.406619 
L 155.72382 259.97471 
L 165.417722 262.51458 
L 175.111623 266.804552 
L 184.805524 271.813169 
L 194.499425 276.347553 
L 204.193326 279.795017 
L 213.887227 282.431188 
L 223.581128 284.909573 
L 233.275029 287.382523 
L 242.96893 288.976693 
L 252.662831 288.238473 
L 262.356732 284.207396 
L 272.050633 277.329444 
L 281.744534 269.391562 
L 291.438435 262.517219 
L 301.132336 257.899461 
L 310.826237 255.232299 
L 320.520138 253.215412 
L 330.214039 250.729871 
L 339.90794 247.757764 
L 349.601841 245.373752 
L 359.295742 244.902908 
L 368.989643 246.932265 
L 378.683544 250.893324 
L 388.377445 255.395171 
L 398.071346 259.025344 
L 407.765247 261.098538 
L 417.459148 261.945404 
L 427.153049 262.560022 
L 436.846951 263.796787 
L 446.540852 265.672895 
L 456.234753 267.333068 
L 465.928654 267.779574 
L 475.622555 266.763512 
L 485.316456 265.079863 
L 495.010357 264.004999 
L 504.704258 264.39922 
L 514.398159 266.20606 
L 524.09206 268.587626 
L 533.785961 270.396347 
L 543.479862 270.564118 
L 553.173763 268.439811 
L 562.867664 264.138412 
L 572.561565 258.822167 
L 582.255466 254.419497 
L 591.949367 252.772136 
L 601.643268 254.64096 
L 611.337169 259.384087 
L 621.03107 265.405991 
L 630.724971 270.957301 
L 640.418872 274.6199 
L 650.112773 275.450718 
L 659.806674 273.0771 
L 669.500575 267.979832 
L 679.194476 261.657802 
L 688.888377 256.256903 
L 698.582278 253.585871 
L 708.27618 254.064818 
L 717.970081 256.34172 
L 727.663982 257.988769 
L 737.357883 256.944363 
L 747.051784 252.839622 
L 756.745685 247.299516 
L 766.439586 242.976868 
L 776.133487 241.906374 
L 785.827388 244.298293 
L 795.521289 248.554151 
L 805.21519 252.449934 
L 814.909091 254.609844 
" clip-path="url(#pa220891813)" style="fill: none; stroke: #1f77b4; stroke-width: 1.5; stroke-linecap: square"/>
   </g>
  </g>
 </g>
 <defs>
  <clipPath id="pa220891813">
   <rect x="10.8" y="10.8" width="842.4" height="410.4"/>
  </clipPath>
 </defs>
</svg>
