<svg width="1280" height="378" xmlns="http://www.w3.org/2000/svg" xmlns:xlink="http://www.w3.org/1999/xlink" overflow="hidden"><g><rect x="0" y="0" width="1280" height="378" fill="#FFFFFF"/><path d="M244.5 62.0001 1181.88 62.0002 1181.88 65.0002 244.5 65.0001ZM1180.38 59.0002 1189.38 63.5002 1180.38 68.0002Z"/><text font-family="Times New Roman,Times New Roman_MSFontService,sans-serif" font-weight="400" font-size="43" transform="translate(47.5996 78)">Fine</text><text font-family="Times New Roman,Times New Roman_MSFontService,sans-serif" font-weight="400" font-size="43" transform="translate(47.5993 330)">Coarse</text><path d="M244.5 314 1181.88 314 1181.88 317 244.5 317ZM1180.38 311 1189.38 315.5 1180.38 320Z"/><path d="M232.5 63.5001C232.5 56.8726 237.873 51.5001 244.5 51.5001 251.127 51.5001 256.5 56.8726 256.5 63.5001 256.5 70.1275 251.127 75.5001 244.5 75.5001 237.873 75.5001 232.5 70.1275 232.5 63.5001Z" stroke="#FFFFFF" stroke-width="3" stroke-miterlimit="8" fill="#1F77B4" fill-rule="evenodd"/><path d="M366.5 63.5001C366.5 56.8726 371.873 51.5001 378.5 51.5001 385.127 51.5001 390.5 56.8726 390.5 63.5001 390.5 70.1275 385.127 75.5001 378.5 75.5001 371.873 75.5001 366.5 70.1275 366.5 63.5001Z" stroke="#FFFFFF" stroke-width="3" stroke-miterlimit="8" fill="#1F77B4" fill-rule="evenodd"/><path d="M500.5 63.5001C500.5 56.8726 506.096 51.5001 513 51.5001 519.904 51.5001 525.5 56.8726 525.5 63.5001 525.5 70.1275 519.904 75.5001 513 75.5001 506.096 75.5001 500.5 70.1275 500.5 63.5001Z" stroke="#FFFFFF" stroke-width="3" stroke-miterlimit="8" fill="#1F77B4" fill-rule="evenodd"/><path d="M634.5 63.5001C634.5 56.8726 640.096 51.5001 647 51.5001 653.904 51.5001 659.5 56.8726 659.5 63.5001 659.5 70.1275 653.904 75.5001 647 75.5001 640.096 75.5001 634.5 70.1275 634.5 63.5001Z" stroke="#FFFFFF" stroke-width="3" stroke-miterlimit="8" fill="#1F77B4" fill-rule="evenodd"/><path d="M769.5 63.5001C769.5 56.8726 774.873 51.5001 781.5 51.5001 788.128 51.5001 793.5 56.8726 793.5 63.5001 793.5 70.1275 788.128 75.5001 781.5 75.5001 774.873 75.5001 769.5 70.1275 769.5 63.5001Z" stroke="#FFFFFF" stroke-width="3" stroke-miterlimit="8" fill="#1F77B4" fill-rule="evenodd"/><path d="M903.5 63.5001C903.5 56.8726 908.873 51.5001 915.5 51.5001 922.128 51.5001 927.5 56.8726 927.5 63.5001 927.5 70.1275 922.128 75.5001 915.5 75.5001 908.873 75.5001 903.5 70.1275 903.5 63.5001Z" stroke="#FFFFFF" stroke-width="3" stroke-miterlimit="8" fill="#1F77B4" fill-rule="evenodd"/><path d="M1037.5 63.5001C1037.5 56.8726 1042.87 51.5001 1049.5 51.5001 1056.13 51.5001 1061.5 56.8726 1061.5 63.5001 1061.5 70.1275 1056.13 75.5001 1049.5 75.5001 1042.87 75.5001 1037.5 70.1275 1037.5 63.5001Z" stroke="#FFFFFF" stroke-width="3" stroke-miterlimit="8" fill="#1F77B4" fill-rule="evenodd"/><rect x="232.5" y="303.5" width="24" height="24" stroke="#FFFFFF" stroke-width="3" stroke-miterlimit="8" fill="#FF7F0E"/><rect x="500.5" y="303.5" width="25" height="24" stroke="#FFFFFF" stroke-width="3" stroke-miterlimit="8" fill="#FF7F0E"/><rect x="769.5" y="303.5" width="24" height="24" stroke="#FFFFFF" stroke-width="3" stroke-miterlimit="8" fill="#FF7F0E"/><rect x="1037.5" y="303.5" width="25" height="24" stroke="#FFFFFF" stroke-width="3" stroke-miterlimit="8" fill="#FF7F0E"/><path d="M784 94 784 266.03 778 266.03 778 94ZM790 263.03 781 281.03 772 263.03Z"/><path d="M515 93 515 265.344 509 265.344 509 93ZM521 262.344 512 280.344 503 262.344Z"/><path d="M380.504 94.347 390.421 109.368 385.414 112.674 375.496 97.653ZM393.727 114.375 403.645 129.396 398.638 132.702 388.72 117.681ZM406.951 134.403 416.869 149.425 411.862 152.731 401.944 137.709ZM420.175 154.432 430.093 169.453 425.086 172.759 415.168 157.738ZM433.399 174.46 443.317 189.481 438.31 192.787 428.392 177.766ZM446.623 194.488 456.541 209.509 451.534 212.815 441.616 197.794ZM459.847 214.516 469.765 229.537 464.758 232.843 454.84 217.822ZM473.071 234.544 482.989 249.565 477.982 252.871 468.064 237.85ZM486.295 254.573 494.278 266.664 489.271 269.97 481.288 257.879ZM497.632 260.854 500.04 280.834 482.611 270.772Z" fill="#7F7F7F"/><path d="M2.5137-1.63747 12.3385 13.4447 7.31112 16.7197-2.5137 1.63747ZM15.6135 18.4721 25.4383 33.5543 20.4109 36.8293 10.5861 21.7471ZM28.7132 38.5817 38.5381 53.6639 33.5106 56.9389 23.6858 41.8567ZM41.813 58.6913 51.6378 73.7735 46.6104 77.0485 36.7856 61.9663ZM54.9128 78.8009 64.7376 93.8832 59.7102 97.1581 49.8854 82.0759ZM68.0125 98.9105 77.8373 113.993 72.8099 117.268 62.9851 102.185ZM81.1123 119.02 90.9371 134.102 85.9097 137.377 76.0849 122.295ZM94.212 139.13 104.037 154.212 99.0095 157.487 89.1846 142.405ZM107.312 159.239 116.366 173.138 111.338 176.413 102.284 162.514ZM119.756 167.35 122.039 187.344 104.674 177.174Z" fill="#7F7F7F" transform="matrix(-1 0 0 1 647.039 93)"/><path d="M649.514 91.3625 659.339 106.445 654.311 109.72 644.486 94.6375ZM662.614 111.472 672.438 126.554 667.411 129.829 657.586 114.747ZM675.713 131.582 685.538 146.664 680.511 149.939 670.686 134.857ZM688.813 151.691 698.638 166.773 693.611 170.048 683.786 154.966ZM701.913 171.801 711.738 186.883 706.71 190.158 696.885 175.076ZM715.013 191.91 724.838 206.993 719.81 210.268 709.985 195.185ZM728.113 212.02 737.937 227.102 732.91 230.377 723.085 215.295ZM741.212 232.13 751.037 247.212 746.01 250.487 736.185 235.405ZM754.312 252.239 763.366 266.138 758.339 269.413 749.285 255.514ZM766.756 260.35 769.04 280.344 751.674 270.174Z" fill="#7F7F7F"/><path d="M2.5137-1.63747 12.3385 13.4447 7.31112 16.7197-2.5137 1.63747ZM15.6135 18.4721 25.4383 33.5543 20.4109 36.8293 10.5861 21.7471ZM28.7132 38.5817 38.5381 53.6639 33.5106 56.9389 23.6858 41.8567ZM41.813 58.6913 51.6378 73.7735 46.6104 77.0485 36.7856 61.9663ZM54.9128 78.8009 64.7376 93.8832 59.7102 97.1581 49.8854 82.0759ZM68.0125 98.9105 77.8373 113.993 72.8099 117.268 62.9851 102.185ZM81.1123 119.02 90.9371 134.102 85.9097 137.377 76.0849 122.295ZM94.212 139.13 104.037 154.212 99.0095 157.487 89.1846 142.405ZM107.312 159.239 116.366 173.138 111.338 176.413 102.284 162.514ZM119.756 167.35 122.039 187.344 104.674 177.174Z" fill="#7F7F7F" transform="matrix(-1 0 0 1 915.039 93)"/></g></svg>