<svg width="756" height="378" xmlns="http://www.w3.org/2000/svg" xmlns:xlink="http://www.w3.org/1999/xlink" overflow="hidden"><g><rect x="0" y="0" width="756" height="377.917" fill="#FFFFFF"/><path d="M182.801 304.459 188.554 301.138 56.2986 72.1149 67.8046 65.4734 200.06 294.496 205.813 291.176 211.518 327.621Z" stroke="#434343" stroke-width="1.33355" stroke-miterlimit="8" fill="#A5A5A5" fill-rule="evenodd"/><path d="M487.523 348.423 487.523 341.675 223.5 341.675 223.5 328.178 487.523 328.178 487.523 321.429 522.5 334.926Z" stroke="#434343" stroke-width="1.33333" stroke-miterlimit="8" fill="#A5A5A5" fill-rule="evenodd"/><path d="M677.226 91.9567 671.473 88.6359 539.217 317.659 527.711 311.017 659.967 81.9944 654.214 78.6736 682.931 55.511Z" stroke="#434343" stroke-width="1.33355" stroke-miterlimit="8" fill="#A5A5A5" fill-rule="evenodd"/><text font-family="Calibri,Calibri_MSFontService,sans-serif" font-weight="400" font-size="24" transform="matrix(1 0 0 0.99978 16.9423 42)">Pre</text><text font-family="Calibri,Calibri_MSFontService,sans-serif" font-weight="400" font-size="24" transform="matrix(1 0 0 0.99978 49.3027 42)">-</text><text font-family="Calibri,Calibri_MSFontService,sans-serif" font-weight="400" font-size="24" transform="matrix(1 0 0 0.99978 56.6377 42)">smooth</text><text font-family="Calibri,Calibri_MSFontService,sans-serif" font-weight="400" font-size="24" transform="matrix(1 0 0 0.99978 619.406 42)">Post</text><text font-family="Calibri,Calibri_MSFontService,sans-serif" font-weight="400" font-size="24" transform="matrix(1 0 0 0.99978 661.002 42)">-</text><text font-family="Calibri,Calibri_MSFontService,sans-serif" font-weight="400" font-size="24" transform="matrix(1 0 0 0.99978 668.336 42)">smooth</text><text font-family="Calibri,Calibri_MSFontService,sans-serif" font-weight="400" font-size="24" transform="matrix(1 0 0 0.99978 157.523 186)">Restrict</text><text font-family="Calibri,Calibri_MSFontService,sans-serif" font-weight="400" font-size="24" transform="matrix(1 0 0 0.99978 478.752 186)">Prolongate</text><text font-family="Calibri,Calibri_MSFontService,sans-serif" font-weight="400" font-size="24" transform="matrix(1 0 0 0.99978 346.603 309)">Solve</text></g></svg>