<svg width="1280" height="567" xmlns="http://www.w3.org/2000/svg" xmlns:xlink="http://www.w3.org/1999/xlink" overflow="hidden"><g><rect x="0" y="0" width="1280" height="567" fill="#FFFFFF"/><path d="M215.672 22.6351 281.311 151.11 275.968 153.84 210.328 25.3649ZM204.985 28.0948C202.724 23.6684 204.479 18.2469 208.905 15.9855 213.332 13.724 218.753 15.4789 221.015 19.9052 223.276 24.3316 221.521 29.7531 217.095 32.0145 212.668 34.276 207.247 32.5211 204.985 28.0948ZM285.29 145.708 285.465 165.832 269.26 153.898Z"/><path d="M288.672 163.635 354.311 292.11 348.968 294.84 283.328 166.365ZM277.985 169.095C275.724 164.668 277.479 159.247 281.905 156.985 286.332 154.724 291.753 156.479 294.015 160.905 296.276 165.332 294.521 170.753 290.095 173.015 285.668 175.276 280.247 173.521 277.985 169.095ZM358.29 286.708 358.465 306.832 342.26 294.898Z"/><path d="M360.672 305.635 426.311 434.11 420.968 436.84 355.328 308.365ZM349.985 311.095C347.724 306.668 349.479 301.247 353.905 298.985 358.332 296.724 363.753 298.479 366.015 302.905 368.276 307.332 366.521 312.753 362.095 315.015 357.668 317.276 352.247 315.521 349.985 311.095ZM430.29 428.708 430.465 448.832 414.26 436.898Z"/><path d="M2.66918-1.36947 68.2864 126.522 62.948 129.261-2.66918 1.36947ZM-8.00755 4.10842C-10.2766-0.314027-8.53087-5.73853-4.10842-8.00755 0.314027-10.2766 5.73853-8.53087 8.00755-4.10842 10.2766 0.314027 8.53087 5.73853 4.10842 8.00755-0.314027 10.2766-5.73853 8.53087-8.00755 4.10842ZM72.2553 121.114 72.4646 141.238 56.2402 129.331Z" transform="matrix(1 0 0 -1 425 448.238)"/><path d="M2.66918-1.36947 68.2864 126.522 62.948 129.261-2.66918 1.36947ZM-8.00755 4.10842C-10.2766-0.314027-8.53087-5.73853-4.10842-8.00755 0.314027-10.2766 5.73853-8.53087 8.00755-4.10842 10.2766 0.314027 8.53087 5.73853 4.10842 8.00755-0.314027 10.2766-5.73853 8.53087-8.00755 4.10842ZM72.2553 121.114 72.4646 141.238 56.2402 129.331Z" transform="matrix(1 0 0 -1 498 307.238)"/><path d="M2.66918-1.36947 68.2864 126.522 62.948 129.261-2.66918 1.36947ZM-8.00755 4.10842C-10.2766-0.314027-8.53087-5.73853-4.10842-8.00755 0.314027-10.2766 5.73853-8.53087 8.00755-4.10842 10.2766 0.314027 8.53087 5.73853 4.10842 8.00755-0.314027 10.2766-5.73853 8.53087-8.00755 4.10842ZM72.2553 121.114 72.4646 141.238 56.2402 129.331Z" transform="matrix(1 0 0 -1 571 165.238)"/><path d="M749.907 23.2575 782.426 150.556 776.613 152.041 744.093 24.7425ZM738.28 26.2276C737.05 21.4117 739.956 16.5103 744.772 15.28 749.588 14.0498 754.49 16.9565 755.72 21.7724 756.95 26.5883 754.044 31.4897 749.228 32.72 744.412 33.9502 739.51 31.0435 738.28 26.2276ZM787.497 146.165 783.232 165.832 770.057 150.62Z"/><path d="M787.907 164.257 820.426 291.556 814.613 293.041 782.093 165.743ZM776.28 167.228C775.05 162.412 777.956 157.51 782.772 156.28 787.588 155.05 792.49 157.956 793.72 162.772 794.95 167.588 792.044 172.49 787.228 173.72 782.412 174.95 777.51 172.044 776.28 167.228ZM825.497 287.165 821.232 306.832 808.057 291.62Z"/><path d="M823.907 306.257 856.426 433.556 850.613 435.041 818.093 307.743ZM812.28 309.228C811.05 304.412 813.956 299.51 818.772 298.28 823.588 297.05 828.49 299.957 829.72 304.772 830.95 309.588 828.044 314.49 823.228 315.72 818.412 316.95 813.51 314.043 812.28 309.228ZM861.497 429.165 857.232 448.832 844.057 433.62Z"/><path d="M1002.91 164.257 1035.43 291.556 1029.61 293.041 997.093 165.743ZM991.28 167.228C990.05 162.412 992.956 157.51 997.772 156.28 1002.59 155.05 1007.49 157.956 1008.72 162.772 1009.95 167.588 1007.04 172.49 1002.23 173.72 997.412 174.95 992.51 172.044 991.28 167.228ZM1040.5 287.165 1036.23 306.832 1023.06 291.62Z"/><path d="M1038.91 306.257 1071.43 433.556 1065.61 435.041 1033.09 307.743ZM1027.28 309.228C1026.05 304.412 1028.96 299.51 1033.77 298.28 1038.59 297.05 1043.49 299.957 1044.72 304.772 1045.95 309.588 1043.04 314.49 1038.23 315.72 1033.41 316.95 1028.51 314.043 1027.28 309.228ZM1076.5 429.165 1072.23 448.832 1059.06 433.62Z"/><path d="M1110.91 306.257 1143.43 433.556 1137.61 435.041 1105.09 307.743ZM1099.28 309.228C1098.05 304.412 1100.96 299.51 1105.77 298.28 1110.59 297.05 1115.49 299.957 1116.72 304.772 1117.95 309.588 1115.04 314.49 1110.23 315.72 1105.41 316.95 1100.51 314.043 1099.28 309.228ZM1148.5 429.165 1144.23 448.832 1131.06 433.62Z"/><path d="M895.907 306.257 928.426 433.556 922.613 435.041 890.093 307.743ZM884.28 309.228C883.05 304.412 885.956 299.51 890.772 298.28 895.588 297.05 900.49 299.957 901.72 304.772 902.95 309.588 900.044 314.49 895.228 315.72 890.412 316.95 885.51 314.043 884.28 309.228ZM933.497 429.165 929.232 448.832 916.057 433.62Z"/><path d="M2.90621-0.744254 35.5068 126.557 29.6944 128.045-2.90621 0.744254ZM-8.71865 2.23276C-9.95177-2.58241-7.04794-7.48552-2.23276-8.71865 2.58241-9.95177 7.48552-7.04794 8.71865-2.23276 9.95177 2.58241 7.04794 7.48552 2.23276 8.71865-2.58241 9.95177-7.48552 7.04794-8.71865 2.23276ZM40.575 122.162 36.3219 141.832 23.1377 126.628Z" transform="matrix(1 0 0 -1 857 448.832)"/><path d="M2.90621-0.744254 35.5068 126.557 29.6944 128.045-2.90621 0.744254ZM-8.71865 2.23276C-9.95177-2.58241-7.04794-7.48552-2.23276-8.71865 2.58241-9.95177 7.48552-7.04794 8.71865-2.23276 9.95177 2.58241 7.04794 7.48552 2.23276 8.71865-2.58241 9.95177-7.48552 7.04794-8.71865 2.23276ZM40.575 122.162 36.3219 141.832 23.1377 126.628Z" transform="matrix(1 0 0 -1 928 448.832)"/><path d="M2.90621-0.744254 35.5068 126.557 29.6944 128.045-2.90621 0.744254ZM-8.71865 2.23276C-9.95177-2.58241-7.04794-7.48552-2.23276-8.71865 2.58241-9.95177 7.48552-7.04794 8.71865-2.23276 9.95177 2.58241 7.04794 7.48552 2.23276 8.71865-2.58241 9.95177-7.48552 7.04794-8.71865 2.23276ZM40.575 122.162 36.3219 141.832 23.1377 126.628Z" transform="matrix(1 0 0 -1 964 306.832)"/><path d="M2.90621-0.744254 35.5068 126.557 29.6944 128.045-2.90621 0.744254ZM-8.71865 2.23276C-9.95177-2.58241-7.04794-7.48552-2.23276-8.71865 2.58241-9.95177 7.48552-7.04794 8.71865-2.23276 9.95177 2.58241 7.04794 7.48552 2.23276 8.71865-2.58241 9.95177-7.48552 7.04794-8.71865 2.23276ZM40.575 122.162 36.3219 141.832 23.1377 126.628Z" transform="matrix(1 0 0 -1 1072 448.832)"/><path d="M2.90621-0.744254 35.5068 126.557 29.6944 128.045-2.90621 0.744254ZM-8.71865 2.23276C-9.95177-2.58241-7.04794-7.48552-2.23276-8.71865 2.58241-9.95177 7.48552-7.04794 8.71865-2.23276 9.95177 2.58241 7.04794 7.48552 2.23276 8.71865-2.58241 9.95177-7.48552 7.04794-8.71865 2.23276ZM40.575 122.162 36.3219 141.832 23.1377 126.628Z" transform="matrix(1 0 0 -1 1144 448.832)"/><path d="M2.90621-0.744254 35.5068 126.557 29.6944 128.045-2.90621 0.744254ZM-8.71865 2.23276C-9.95177-2.58241-7.04794-7.48552-2.23276-8.71865 2.58241-9.95177 7.48552-7.04794 8.71865-2.23276 9.95177 2.58241 7.04794 7.48552 2.23276 8.71865-2.58241 9.95177-7.48552 7.04794-8.71865 2.23276ZM40.575 122.162 36.3219 141.832 23.1377 126.628Z" transform="matrix(1 0 0 -1 1180 306.832)"/><path d="M2.90621-0.744254 35.5068 126.557 29.6944 128.045-2.90621 0.744254ZM-8.71865 2.23276C-9.95177-2.58241-7.04794-7.48552-2.23276-8.71865 2.58241-9.95177 7.48552-7.04794 8.71865-2.23276 9.95177 2.58241 7.04794 7.48552 2.23276 8.71865-2.58241 9.95177-7.48552 7.04794-8.71865 2.23276ZM40.575 122.162 36.3219 141.832 23.1377 126.628Z" transform="matrix(1 0 0 -1 1216 165.832)"/><text font-family="Times New Roman,Times New Roman_MSFontService,sans-serif" font-weight="400" font-size="24" transform="translate(229.063 32)">Smooth</text><text font-family="Times New Roman,Times New Roman_MSFontService,sans-serif" font-weight="400" font-size="24" transform="translate(657.589 32)">Smooth</text><text font-family="Times New Roman,Times New Roman_MSFontService,sans-serif" font-weight="400" font-size="24" transform="translate(165.942 103)">restrict</text><text font-family="Times New Roman,Times New Roman_MSFontService,sans-serif" font-weight="400" font-size="24" transform="translate(625.088 101)">prolong</text><text font-family="Times New Roman,Times New Roman_MSFontService,sans-serif" font-weight="400" font-size="24" transform="translate(376.167 477)">exact solve</text><text font-family="Times New Roman,Times New Roman_MSFontService,sans-serif" font-weight="400" font-size="24" transform="translate(393.098 550)">V</text><text font-family="Times New Roman,Times New Roman_MSFontService,sans-serif" font-weight="400" font-size="24" transform="translate(408.231 550)">-</text><text font-family="Times New Roman,Times New Roman_MSFontService,sans-serif" font-weight="400" font-size="24" transform="translate(416.231 550)">cycle</text><text font-family="Times New Roman,Times New Roman_MSFontService,sans-serif" font-weight="400" font-size="24" transform="translate(959.564 550)">W</text><text font-family="Times New Roman,Times New Roman_MSFontService,sans-serif" font-weight="400" font-size="24" transform="translate(980.904 550)">-</text><text font-family="Times New Roman,Times New Roman_MSFontService,sans-serif" font-weight="400" font-size="24" transform="translate(988.904 550)">cycle</text><text font-family="Cambria Math,Cambria Math_MSFontService,sans-serif" font-weight="400" font-size="24" transform="translate(12.6828 464)">Ω</text><text font-family="Cambria Math,Cambria Math_MSFontService,sans-serif" font-weight="400" font-size="18" transform="translate(29.0162 456)">ℎ</text><text font-family="Cambria Math,Cambria Math_MSFontService,sans-serif" font-weight="400" font-size="14" transform="translate(39.8495 459)">4</text><text font-family="Times New Roman,Times New Roman_MSFontService,sans-serif" font-weight="400" font-size="24" transform="translate(50.0695 464)">: coarsest</text><text font-family="Cambria Math,Cambria Math_MSFontService,sans-serif" font-weight="400" font-size="24" transform="translate(12.6828 321)">Ω</text><text font-family="Cambria Math,Cambria Math_MSFontService,sans-serif" font-weight="400" font-size="18" transform="translate(29.0162 312)">ℎ</text><text font-family="Cambria Math,Cambria Math_MSFontService,sans-serif" font-weight="400" font-size="14" transform="translate(39.8495 316)">2</text><text font-family="Cambria Math,Cambria Math_MSFontService,sans-serif" font-weight="400" font-size="24" transform="translate(12.6828 177)">Ω</text><text font-family="Cambria Math,Cambria Math_MSFontService,sans-serif" font-weight="400" font-size="18" transform="translate(29.0162 168)">ℎ</text><text font-family="Cambria Math,Cambria Math_MSFontService,sans-serif" font-weight="400" font-size="14" transform="translate(39.8495 172)">1</text><text font-family="Cambria Math,Cambria Math_MSFontService,sans-serif" font-weight="400" font-size="24" transform="translate(12.6828 34)">Ω</text><text font-family="Cambria Math,Cambria Math_MSFontService,sans-serif" font-weight="400" font-size="18" transform="translate(29.0162 25)">ℎ</text><text font-family="Cambria Math,Cambria Math_MSFontService,sans-serif" font-weight="400" font-size="14" transform="translate(39.8495 29)">0</text><text font-family="Times New Roman,Times New Roman_MSFontService,sans-serif" font-weight="400" font-size="24" transform="translate(50.0695 34)">: fine</text></g></svg>